<svg width="1474" height="1329" viewBox="0 0 1474 1329" fill="none" xmlns="http://www.w3.org/2000/svg">
<g clip-path="url(#clip0_1127_93)">
<rect width="1474" height="1329" fill="white"/>
<path d="M1054 760L1054 905" stroke="#007BFF" stroke-width="4"/>
<path d="M1053.85 890.118L1036 890.118L1053.83 931.281L1071.42 890.118L1053.85 890.118Z" fill="#007BFF" stroke="#007BFF" stroke-width="4"/>
<path d="M1325.42 936.281L1325.42 791.281" stroke="#007BFF" stroke-width="4"/>
<path d="M1325.57 806.163H1343.42L1325.59 765L1308 806.163H1325.57Z" fill="#007BFF" stroke="#007BFF" stroke-width="4"/>
<rect x="1311" y="827" width="32" height="44" fill="white"/>
<path d="M1054 398L1054 543" stroke="#007BFF" stroke-width="4"/>
<path d="M1053.85 528.118L1036 528.118L1053.83 569.281L1071.42 528.118L1053.85 528.118Z" fill="#007BFF" stroke="#007BFF" stroke-width="4"/>
<path d="M1325.42 574.281L1325.42 429.281" stroke="#007BFF" stroke-width="4"/>
<path d="M1325.57 444.163H1343.42L1325.59 403L1308 444.163H1325.57Z" fill="#007BFF" stroke="#007BFF" stroke-width="4"/>
<rect x="1310" y="465" width="32" height="44" fill="white"/>
<rect x="1312" y="827" width="32" height="44" fill="white"/>
<path d="M149 761L149 906" stroke="#007BFF" stroke-width="4"/>
<path d="M148.847 891.118L131 891.118L148.832 932.281L166.42 891.118L148.847 891.118Z" fill="#007BFF" stroke="#007BFF" stroke-width="4"/>
<path d="M420.42 937.281L420.42 792.281" stroke="#007BFF" stroke-width="4"/>
<path d="M420.573 807.163H438.42L420.588 766L403 807.163H420.573Z" fill="#007BFF" stroke="#007BFF" stroke-width="4"/>
<rect x="392" y="829" width="56" height="44" fill="white"/>
<path d="M149 399L149 544" stroke="#007BFF" stroke-width="4"/>
<path d="M148.847 529.118L131 529.118L148.832 570.281L166.42 529.118L148.847 529.118Z" fill="#007BFF" stroke="#007BFF" stroke-width="4"/>
<path d="M420.42 575.281L420.42 430.281" stroke="#007BFF" stroke-width="4"/>
<path d="M420.573 445.163H438.42L420.588 404L403 445.163H420.573Z" fill="#007BFF" stroke="#007BFF" stroke-width="4"/>
<rect x="397" y="465" width="48" height="44" fill="white"/>
<rect x="13" y="215" width="544" height="182" rx="14" fill="white" stroke="#274867" stroke-width="4"/>
<rect x="917" y="215" width="544" height="182" rx="14" fill="white" stroke="#274867" stroke-width="4"/>
<rect x="13" y="577" width="544" height="182" rx="14" fill="white" stroke="#274867" stroke-width="4"/>
<rect x="917" y="577" width="544" height="182" rx="14" fill="white" stroke="#274867" stroke-width="4"/>
<rect x="13" y="939" width="544" height="182" rx="14" fill="white" stroke="#274867" stroke-width="4"/>
<rect x="917" y="939" width="544" height="182" rx="14" fill="white" stroke="#274867" stroke-width="4"/>
<path d="M915 1030H590" stroke="#007BFF" stroke-width="4"/>
<path d="M605.163 1029.85L605.163 1012L564 1029.83L605.163 1047.42L605.163 1029.85Z" fill="#007BFF" stroke="#007BFF" stroke-width="4"/>
<path d="M1324.5 215L1324.5 36L149 36.0001L149 183" stroke="#007BFF" stroke-width="4"/>
<path d="M148.847 167.837L130.999 167.837L148.832 209L166.42 167.837L148.847 167.837Z" fill="#007BFF" stroke="#007BFF" stroke-width="4"/>
<path d="M149 1124L149 1303L1324.5 1303L1324.5 1156" stroke="#007BFF" stroke-width="4"/>
<path d="M1324.65 1171.16L1342.5 1171.16L1324.67 1130L1307.08 1171.16L1324.65 1171.16Z" fill="#007BFF" stroke="#007BFF" stroke-width="4"/>
<path d="M245.103 304.764C247.547 303.448 248.769 300.957 248.769 297.949C248.769 293.343 245.15 289.442 238.053 289.442H223.436V323H238.429C246.09 323 249.803 318.911 249.803 313.553C249.803 310.122 247.923 307.114 245.103 305.798V304.764ZM227.666 293.202H237.865C241.249 293.202 244.492 294.518 244.492 298.325C244.492 302.461 241.672 303.683 237.959 303.683H227.666V293.202ZM227.666 319.24V307.396H238.194C242.142 307.396 245.526 308.9 245.526 313.224C245.526 317.877 241.954 319.24 238.147 319.24H227.666ZM255.592 299.312V314.352C255.592 320.039 258.788 323.611 264.616 323.611C267.812 323.611 270.444 322.295 271.76 320.462H272.794V323H276.648V299.312H272.653V312.143C272.653 316.42 269.786 320.039 265.603 320.039C261.608 320.039 259.587 317.877 259.587 313.506V299.312H255.592ZM290.725 332.4L304.919 299.312H300.736L294.156 314.916H292.981L285.743 299.312H281.466L291.571 320.791L286.683 332.4H290.725ZM329.703 309.746C329.562 303.918 326.178 298.701 319.128 298.701C311.937 298.701 307.707 303.636 307.707 310.921C307.707 318.206 311.843 323.611 319.222 323.611C325.097 323.611 328.528 320.509 329.28 316.467H325.238C324.533 318.723 322.559 320.133 319.222 320.133C314.334 320.133 311.796 316.749 311.655 311.109H329.703V309.746ZM319.034 302.179C323.029 302.179 325.332 304.764 325.567 307.772H311.89C312.407 304.764 314.757 302.179 319.034 302.179ZM349.459 299.312H347.673C344.242 299.312 341.986 300.675 340.811 302.132H339.777V299.312H335.923V323H339.918V311.156C339.918 305.939 342.785 303.072 347.485 303.072H349.459V299.312Z" fill="#274867"/>
<path d="M183.293 657H187.429V628.236H188.463L197.064 644.169H201.482L210.083 628.236H211.117V657H215.253V623.442H208.156L199.837 639.187H198.803L190.343 623.442H183.293V657ZM243.937 643.746C243.796 637.918 240.412 632.701 233.362 632.701C226.171 632.701 221.941 637.636 221.941 644.921C221.941 652.206 226.077 657.611 233.456 657.611C239.331 657.611 242.762 654.509 243.514 650.467H239.472C238.767 652.723 236.793 654.133 233.456 654.133C228.568 654.133 226.03 650.749 225.889 645.109H243.937V643.746ZM233.268 636.179C237.263 636.179 239.566 638.764 239.801 641.772H226.124C226.641 638.764 228.991 636.179 233.268 636.179ZM263.693 633.312H261.907C258.476 633.312 256.22 634.675 255.045 636.132H254.011V633.312H250.157V657H254.152V645.156C254.152 639.939 257.019 637.072 261.719 637.072H263.693V633.312ZM284.956 649.856C284.345 652.488 282.371 654.133 278.987 654.133C273.676 654.133 271.467 649.809 271.467 645.062C271.467 640.362 273.629 636.179 278.987 636.179C282.23 636.179 284.063 637.777 284.815 640.174H288.81C288.011 635.803 284.627 632.701 278.987 632.701C271.608 632.701 267.472 638.012 267.472 645.156C267.472 652.159 271.608 657.611 278.987 657.611C284.486 657.611 288.058 654.509 288.951 649.856H284.956ZM315.964 657V641.96C315.964 636.273 312.768 632.701 306.987 632.701C303.791 632.701 301.206 634.017 299.937 635.85H298.903V622.831H294.908V657H298.903V644.169C298.903 639.986 301.723 636.273 305.953 636.273C309.948 636.273 311.969 638.529 311.969 642.806V657H315.964ZM338.36 657H342.12V640.879C342.12 635.568 338.313 632.701 332.344 632.701C327.033 632.701 323.273 635.239 322.944 639.61H326.939C327.127 637.542 328.913 636.179 332.438 636.179C336.574 636.179 338.219 638.247 338.219 641.114V642.054H330.511C323.931 642.054 321.44 646.096 321.44 649.903C321.44 653.945 324.495 657.611 329.947 657.611C333.331 657.611 335.869 656.342 337.326 654.509H338.36V657ZM330.934 654.133C327.409 654.133 325.435 652.441 325.435 649.762C325.435 646.942 327.221 645.25 331.122 645.25H338.219V647.412C338.219 651.172 334.882 654.133 330.934 654.133ZM370.491 657V641.96C370.491 636.273 367.295 632.701 361.467 632.701C358.271 632.701 355.639 634.017 354.323 635.85H353.289V633.312H349.435V657H353.43V644.169C353.43 639.986 356.25 636.273 360.48 636.273C364.475 636.273 366.496 638.435 366.496 642.806V657H370.491ZM383.299 633.312V626.168H379.304V633.312H375.215V636.79H379.304V650.373C379.304 655.402 382.312 657 387.435 657H389.268V653.428H387.529C384.333 653.428 383.299 652.206 383.299 649.809V636.79H389.268V633.312H383.299ZM214.246 699.336C214.246 690.03 217.724 683.45 221.484 678.327H217.63C213.776 683.215 210.486 690.077 210.486 699.336C210.486 708.689 213.87 715.786 217.959 720.627H221.813C217.959 715.504 214.246 708.783 214.246 699.336ZM235.722 693.931C232.902 693.32 230.035 692.286 230.035 689.043C230.035 685.518 233.419 683.685 237.461 683.685C242.349 683.685 244.652 685.518 245.451 688.902H249.728C248.976 683.497 244.511 679.831 237.555 679.831C229.988 679.831 225.758 683.92 225.758 689.137C225.758 694.025 229.001 696.657 233.889 697.644C235.534 698.02 238.824 698.631 240.516 699.007C243.806 699.759 246.203 701.122 246.203 704.741C246.203 708.595 242.631 710.757 237.978 710.757C233.372 710.757 229.33 709.206 228.578 704.647H224.301C224.818 710.475 229.941 714.611 237.79 714.611C246.297 714.611 250.48 709.911 250.48 704.647C250.48 698.913 247.096 696.328 242.067 695.2C240.328 694.824 237.179 694.166 235.722 693.931ZM277.649 700.746C277.508 694.918 274.124 689.701 267.074 689.701C259.883 689.701 255.653 694.636 255.653 701.921C255.653 709.206 259.789 714.611 267.168 714.611C273.043 714.611 276.474 711.509 277.226 707.467H273.184C272.479 709.723 270.505 711.133 267.168 711.133C262.28 711.133 259.742 707.749 259.601 702.109H277.649V700.746ZM266.98 693.179C270.975 693.179 273.278 695.764 273.513 698.772H259.836C260.353 695.764 262.703 693.179 266.98 693.179ZM283.869 679.831V714H287.864V679.831H283.869ZM295.573 679.831V714H299.568V679.831H295.573ZM327.816 700.746C327.675 694.918 324.291 689.701 317.241 689.701C310.05 689.701 305.82 694.636 305.82 701.921C305.82 709.206 309.956 714.611 317.335 714.611C323.21 714.611 326.641 711.509 327.393 707.467H323.351C322.646 709.723 320.672 711.133 317.335 711.133C312.447 711.133 309.909 707.749 309.768 702.109H327.816V700.746ZM317.147 693.179C321.142 693.179 323.445 695.764 323.68 698.772H310.003C310.52 695.764 312.87 693.179 317.147 693.179ZM347.572 690.312H345.786C342.355 690.312 340.099 691.675 338.924 693.132H337.89V690.312H334.036V714H338.031V702.156C338.031 696.939 340.898 694.072 345.598 694.072H347.572V690.312ZM356.757 699.336C356.757 708.783 353.044 715.504 349.19 720.627H353.044C357.133 715.786 360.517 708.689 360.517 699.336C360.517 690.077 357.227 683.215 353.373 678.327H349.519C353.279 683.45 356.757 690.03 356.757 699.336Z" fill="#274867"/>
<path d="M400.089 504H419.218V500.334H412.027V471.1H406.904L400.042 475.753V480.077L406.951 475.424H407.891V500.334H400.089V504ZM423.773 504H442.902V500.334H435.711V471.1H430.588L423.726 475.753V480.077L430.635 475.424H431.575V500.334H423.773V504Z" fill="#274867"/>
<path d="M1326.92 481.863C1323.87 481.863 1322.08 482.803 1320.58 484.166H1319.54L1320.3 474.672H1335.76V471.1H1316.96L1315.5 488.443H1319.64C1321.05 486.375 1323.21 485.341 1326.17 485.341C1330.59 485.341 1333.36 488.537 1333.36 493.049C1333.36 497.937 1330.4 500.945 1326.03 500.945C1322.03 500.945 1319.36 498.877 1318.84 494.788H1314.75C1315.13 500.334 1318.98 504.611 1326.22 504.611C1332.89 504.611 1337.5 500.005 1337.5 492.861C1337.5 486.751 1333.5 481.863 1326.92 481.863Z" fill="#274867"/>
<path d="M1333.25 854.626V833.1H1327.47L1312.94 853.592V858.292H1329.21V866H1333.25V858.292H1337.76V854.626H1333.25ZM1317.27 854.626V853.592L1328.22 837.753H1329.25V854.626H1317.27Z" fill="#274867"/>
<path d="M397.244 868H416.373V864.334H409.182V835.1H404.059L397.197 839.753V844.077L404.106 839.424H405.046V864.334H397.244V868ZM432.818 834.442C425.862 834.442 420.739 839.706 420.739 851.55C420.739 863.394 425.862 868.611 432.818 868.611C439.774 868.611 444.944 863.394 444.944 851.55C444.944 839.706 439.774 834.442 432.818 834.442ZM432.818 864.945C427.366 864.945 424.875 859.681 424.875 851.55C424.875 843.372 427.366 838.108 432.818 838.108C438.317 838.108 440.808 843.372 440.808 851.55C440.808 859.681 438.317 864.945 432.818 864.945Z" fill="#274867"/>
<path d="M102.424 985.442V1019H106.654V1005.56H116.618C123.95 1005.56 127.992 1001.8 127.992 995.453C127.992 989.202 123.95 985.442 116.618 985.442H102.424ZM106.654 1001.8V989.202H115.913C121.647 989.202 123.715 991.599 123.715 995.5C123.715 999.401 121.647 1001.8 115.913 1001.8H106.654ZM148.437 1019H152.197V1002.88C152.197 997.568 148.39 994.701 142.421 994.701C137.11 994.701 133.35 997.239 133.021 1001.61H137.016C137.204 999.542 138.99 998.179 142.515 998.179C146.651 998.179 148.296 1000.25 148.296 1003.11V1004.05H140.588C134.008 1004.05 131.517 1008.1 131.517 1011.9C131.517 1015.94 134.572 1019.61 140.024 1019.61C143.408 1019.61 145.946 1018.34 147.403 1016.51H148.437V1019ZM141.011 1016.13C137.486 1016.13 135.512 1014.44 135.512 1011.76C135.512 1008.94 137.298 1007.25 141.199 1007.25H148.296V1009.41C148.296 1013.17 144.959 1016.13 141.011 1016.13ZM165.904 1028.4L180.098 995.312H175.915L169.335 1010.92H168.16L160.922 995.312H156.645L166.75 1016.79L161.862 1028.4H165.904ZM209.665 994.701C206.704 994.701 204.448 995.735 202.991 997.85H201.957C200.688 995.735 198.573 994.701 195.706 994.701C192.698 994.701 190.865 995.782 189.69 997.615H188.656V995.312H184.802V1019H188.797V1005.89C188.797 1001.61 190.677 998.273 194.625 998.273C197.586 998.273 199.137 1000.29 199.137 1004.19V1019H203.132V1005.13C203.132 1001.14 205.2 998.273 208.913 998.273C211.968 998.273 213.472 1000.2 213.472 1004.1V1019H217.467V1003.68C217.467 998.226 215.117 994.701 209.665 994.701ZM245.319 1005.75C245.178 999.918 241.794 994.701 234.744 994.701C227.553 994.701 223.323 999.636 223.323 1006.92C223.323 1014.21 227.459 1019.61 234.838 1019.61C240.713 1019.61 244.144 1016.51 244.896 1012.47H240.854C240.149 1014.72 238.175 1016.13 234.838 1016.13C229.95 1016.13 227.412 1012.75 227.271 1007.11H245.319V1005.75ZM234.65 998.179C238.645 998.179 240.948 1000.76 241.183 1003.77H227.506C228.023 1000.76 230.373 998.179 234.65 998.179ZM272.595 1019V1003.96C272.595 998.273 269.399 994.701 263.571 994.701C260.375 994.701 257.743 996.017 256.427 997.85H255.393V995.312H251.539V1019H255.534V1006.17C255.534 1001.99 258.354 998.273 262.584 998.273C266.579 998.273 268.6 1000.43 268.6 1004.81V1019H272.595ZM285.403 995.312V988.168H281.408V995.312H277.319V998.79H281.408V1012.37C281.408 1017.4 284.416 1019 289.539 1019H291.372V1015.43H289.633C286.437 1015.43 285.403 1014.21 285.403 1011.81V998.79H291.372V995.312H285.403ZM320.846 998.931C318.026 998.32 315.159 997.286 315.159 994.043C315.159 990.518 318.543 988.685 322.585 988.685C327.473 988.685 329.776 990.518 330.575 993.902H334.852C334.1 988.497 329.635 984.831 322.679 984.831C315.112 984.831 310.882 988.92 310.882 994.137C310.882 999.025 314.125 1001.66 319.013 1002.64C320.658 1003.02 323.948 1003.63 325.64 1004.01C328.93 1004.76 331.327 1006.12 331.327 1009.74C331.327 1013.59 327.755 1015.76 323.102 1015.76C318.496 1015.76 314.454 1014.21 313.702 1009.65H309.425C309.942 1015.47 315.065 1019.61 322.914 1019.61C331.421 1019.61 335.604 1014.91 335.604 1009.65C335.604 1003.91 332.22 1001.33 327.191 1000.2C325.452 999.824 322.303 999.166 320.846 998.931ZM348.259 1028.4L362.453 995.312H358.27L351.69 1010.92H350.515L343.277 995.312H339L349.105 1016.79L344.217 1028.4H348.259ZM373.737 1004.24C371.34 1003.87 370.165 1003.16 370.165 1001.33C370.165 999.307 372.233 998.179 375.288 998.179C378.249 998.179 380.505 999.213 380.834 1001.47H384.829C384.312 997.333 381.069 994.701 375.476 994.701C369.084 994.701 366.123 997.756 366.123 1001.7C366.123 1005.28 368.426 1007.06 371.81 1007.67L377.121 1008.57C380.129 1009.08 381.445 1010.21 381.445 1012.28C381.445 1014.86 379.095 1016.13 375.523 1016.13C371.951 1016.13 369.601 1014.82 369.225 1012.14H365.183C365.7 1016.65 368.99 1019.61 375.711 1019.61C382.103 1019.61 385.44 1016.09 385.44 1012.18C385.44 1007.86 382.808 1005.75 378.672 1005.04L375.993 1004.62L373.737 1004.24ZM396.798 995.312V988.168H392.803V995.312H388.714V998.79H392.803V1012.37C392.803 1017.4 395.811 1019 400.934 1019H402.767V1015.43H401.028C397.832 1015.43 396.798 1014.21 396.798 1011.81V998.79H402.767V995.312H396.798ZM429.509 1005.75C429.368 999.918 425.984 994.701 418.934 994.701C411.743 994.701 407.513 999.636 407.513 1006.92C407.513 1014.21 411.649 1019.61 419.028 1019.61C424.903 1019.61 428.334 1016.51 429.086 1012.47H425.044C424.339 1014.72 422.365 1016.13 419.028 1016.13C414.14 1016.13 411.602 1012.75 411.461 1007.11H429.509V1005.75ZM418.84 998.179C422.835 998.179 425.138 1000.76 425.373 1003.77H411.696C412.213 1000.76 414.563 998.179 418.84 998.179ZM460.592 994.701C457.631 994.701 455.375 995.735 453.918 997.85H452.884C451.615 995.735 449.5 994.701 446.633 994.701C443.625 994.701 441.792 995.782 440.617 997.615H439.583V995.312H435.729V1019H439.724V1005.89C439.724 1001.61 441.604 998.273 445.552 998.273C448.513 998.273 450.064 1000.29 450.064 1004.19V1019H454.059V1005.13C454.059 1001.14 456.127 998.273 459.84 998.273C462.895 998.273 464.399 1000.2 464.399 1004.1V1019H468.394V1003.68C468.394 998.226 466.044 994.701 460.592 994.701ZM113.343 1061.34C113.343 1052.03 116.821 1045.45 120.581 1040.33H116.727C112.873 1045.21 109.583 1052.08 109.583 1061.34C109.583 1070.69 112.967 1077.79 117.056 1082.63H120.91C117.056 1077.5 113.343 1070.78 113.343 1061.34ZM138.815 1053.86L132.705 1071.25H131.671L128.099 1042.44H123.963L128.193 1076H134.961L141.259 1058.05H142.293L148.544 1076H155.312L159.542 1042.44H155.453L151.881 1071.25H150.847L144.737 1053.86H138.815ZM185.605 1062.75C185.464 1056.92 182.08 1051.7 175.03 1051.7C167.839 1051.7 163.609 1056.64 163.609 1063.92C163.609 1071.21 167.745 1076.61 175.124 1076.61C180.999 1076.61 184.43 1073.51 185.182 1069.47H181.14C180.435 1071.72 178.461 1073.13 175.124 1073.13C170.236 1073.13 167.698 1069.75 167.557 1064.11H185.605V1062.75ZM174.936 1055.18C178.931 1055.18 181.234 1057.76 181.469 1060.77H167.792C168.309 1057.76 170.659 1055.18 174.936 1055.18ZM204.092 1051.7C200.332 1051.7 198.123 1053.16 196.854 1054.85H195.82V1041.83H191.825V1076H195.679V1073.46H196.713C198.029 1075.11 200.332 1076.61 204.092 1076.61C210.625 1076.61 214.479 1071.16 214.479 1064.16C214.479 1057.01 210.625 1051.7 204.092 1051.7ZM203.199 1073.13C197.935 1073.13 195.773 1068.81 195.773 1064.16C195.773 1059.5 197.935 1055.18 203.199 1055.18C207.946 1055.18 210.484 1058.89 210.484 1064.16C210.484 1069.42 207.946 1073.13 203.199 1073.13ZM221.164 1076H225.3V1047.24H226.334L234.935 1063.17H239.353L247.954 1047.24H248.988V1076H253.124V1042.44H246.027L237.708 1058.19H236.674L228.214 1042.44H221.164V1076ZM271.468 1051.7C264.042 1051.7 259.812 1057.15 259.812 1064.16C259.812 1071.16 264.042 1076.61 271.468 1076.61C278.847 1076.61 283.124 1071.16 283.124 1064.16C283.124 1057.15 278.847 1051.7 271.468 1051.7ZM271.468 1073.13C266.204 1073.13 263.807 1068.81 263.807 1064.16C263.807 1059.5 266.204 1055.18 271.468 1055.18C276.685 1055.18 279.129 1059.5 279.129 1064.16C279.129 1068.81 276.685 1073.13 271.468 1073.13ZM310.415 1076V1060.96C310.415 1055.27 307.219 1051.7 301.391 1051.7C298.195 1051.7 295.563 1053.02 294.247 1054.85H293.213V1052.31H289.359V1076H293.354V1063.17C293.354 1058.99 296.174 1055.27 300.404 1055.27C304.399 1055.27 306.42 1057.43 306.42 1061.81V1076H310.415ZM338.263 1062.75C338.122 1056.92 334.738 1051.7 327.688 1051.7C320.497 1051.7 316.267 1056.64 316.267 1063.92C316.267 1071.21 320.403 1076.61 327.782 1076.61C333.657 1076.61 337.088 1073.51 337.84 1069.47H333.798C333.093 1071.72 331.119 1073.13 327.782 1073.13C322.894 1073.13 320.356 1069.75 320.215 1064.11H338.263V1062.75ZM327.594 1055.18C331.589 1055.18 333.892 1057.76 334.127 1060.77H320.45C320.967 1057.76 323.317 1055.18 327.594 1055.18ZM350.875 1085.4L365.069 1052.31H360.886L354.306 1067.92H353.131L345.893 1052.31H341.616L351.721 1073.79L346.833 1085.4H350.875ZM403.393 1062.75C403.252 1056.92 399.868 1051.7 392.818 1051.7C385.627 1051.7 381.397 1056.64 381.397 1063.92C381.397 1071.21 385.533 1076.61 392.912 1076.61C398.787 1076.61 402.218 1073.51 402.97 1069.47H398.928C398.223 1071.72 396.249 1073.13 392.912 1073.13C388.024 1073.13 385.486 1069.75 385.345 1064.11H403.393V1062.75ZM392.724 1055.18C396.719 1055.18 399.022 1057.76 399.257 1060.77H385.58C386.097 1057.76 388.447 1055.18 392.724 1055.18ZM415.112 1052.31V1045.17H411.117V1052.31H407.028V1055.79H411.117V1069.37C411.117 1074.4 414.125 1076 419.248 1076H421.081V1072.43H419.342C416.146 1072.43 415.112 1071.21 415.112 1068.81V1055.79H421.081V1052.31H415.112ZM443.311 1068.86C442.7 1071.49 440.726 1073.13 437.342 1073.13C432.031 1073.13 429.822 1068.81 429.822 1064.06C429.822 1059.36 431.984 1055.18 437.342 1055.18C440.585 1055.18 442.418 1056.78 443.17 1059.17H447.165C446.366 1054.8 442.982 1051.7 437.342 1051.7C429.963 1051.7 425.827 1057.01 425.827 1064.16C425.827 1071.16 429.963 1076.61 437.342 1076.61C442.841 1076.61 446.413 1073.51 447.306 1068.86H443.311ZM456.659 1061.34C456.659 1070.78 452.946 1077.5 449.092 1082.63H452.946C457.035 1077.79 460.419 1070.69 460.419 1061.34C460.419 1052.08 457.129 1045.21 453.275 1040.33H449.421C453.181 1045.45 456.659 1052.03 456.659 1061.34Z" fill="#274867"/>
<path d="M1074.38 1000.76C1076.82 999.448 1078.05 996.957 1078.05 993.949C1078.05 989.343 1074.43 985.442 1067.33 985.442H1052.71V1019H1067.71C1075.37 1019 1079.08 1014.91 1079.08 1009.55C1079.08 1006.12 1077.2 1003.11 1074.38 1001.8V1000.76ZM1056.94 989.202H1067.14C1070.53 989.202 1073.77 990.518 1073.77 994.325C1073.77 998.461 1070.95 999.683 1067.24 999.683H1056.94V989.202ZM1056.94 1015.24V1003.4H1067.47C1071.42 1003.4 1074.8 1004.9 1074.8 1009.22C1074.8 1013.88 1071.23 1015.24 1067.42 1015.24H1056.94ZM1100.33 1019H1104.09V1002.88C1104.09 997.568 1100.29 994.701 1094.32 994.701C1089.01 994.701 1085.25 997.239 1084.92 1001.61H1088.91C1089.1 999.542 1090.89 998.179 1094.41 998.179C1098.55 998.179 1100.19 1000.25 1100.19 1003.11V1004.05H1092.48C1085.9 1004.05 1083.41 1008.1 1083.41 1011.9C1083.41 1015.94 1086.47 1019.61 1091.92 1019.61C1095.3 1019.61 1097.84 1018.34 1099.3 1016.51H1100.33V1019ZM1092.91 1016.13C1089.38 1016.13 1087.41 1014.44 1087.41 1011.76C1087.41 1008.94 1089.19 1007.25 1093.09 1007.25H1100.19V1009.41C1100.19 1013.17 1096.85 1016.13 1092.91 1016.13ZM1132.46 1019V1003.96C1132.46 998.273 1129.27 994.701 1123.44 994.701C1120.24 994.701 1117.61 996.017 1116.3 997.85H1115.26V995.312H1111.41V1019H1115.4V1006.17C1115.4 1001.99 1118.22 998.273 1122.45 998.273C1126.45 998.273 1128.47 1000.43 1128.47 1004.81V1019H1132.46ZM1161.3 1019L1152.89 1002.6L1159.7 995.312H1154.95L1143.77 1007.2V984.831H1139.77V1019H1143.77V1012.14L1149.22 1006.12H1150.25L1157.02 1019H1161.3ZM1199.37 1005.75C1199.23 999.918 1195.85 994.701 1188.8 994.701C1181.61 994.701 1177.38 999.636 1177.38 1006.92C1177.38 1014.21 1181.51 1019.61 1188.89 1019.61C1194.77 1019.61 1198.2 1016.51 1198.95 1012.47H1194.91C1194.2 1014.72 1192.23 1016.13 1188.89 1016.13C1184 1016.13 1181.46 1012.75 1181.32 1007.11H1199.37V1005.75ZM1188.7 998.179C1192.7 998.179 1195 1000.76 1195.24 1003.77H1181.56C1182.08 1000.76 1184.43 998.179 1188.7 998.179ZM1215.41 998.179C1220.68 998.179 1222.84 1002.5 1222.84 1007.16C1222.84 1011.81 1220.68 1016.13 1215.41 1016.13C1210.67 1016.13 1208.13 1012.42 1208.13 1007.16C1208.13 1001.89 1210.67 998.179 1215.41 998.179ZM1222.93 995.312V997.85H1221.9C1220.58 996.205 1218.28 994.701 1214.52 994.701C1207.99 994.701 1204.13 1000.15 1204.13 1007.16C1204.13 1014.3 1207.99 1019.61 1214.52 1019.61C1218.28 1019.61 1220.44 1018.15 1221.76 1016.46H1222.79V1028.4H1226.79V995.312H1222.93ZM1234.13 995.312V1010.35C1234.13 1016.04 1237.33 1019.61 1243.15 1019.61C1246.35 1019.61 1248.98 1018.29 1250.3 1016.46H1251.33V1019H1255.19V995.312H1251.19V1008.14C1251.19 1012.42 1248.32 1016.04 1244.14 1016.04C1240.15 1016.04 1238.13 1013.88 1238.13 1009.51V995.312H1234.13ZM1267.1 989.155V984.831H1262.87V989.155H1267.1ZM1266.96 995.312H1262.97V1019H1266.96V995.312ZM1288.34 995.312H1286.56C1283.12 995.312 1280.87 996.675 1279.69 998.132H1278.66V995.312H1274.81V1019H1278.8V1007.16C1278.8 1001.94 1281.67 999.072 1286.37 999.072H1288.34V995.312ZM1314.12 1005.75C1313.98 999.918 1310.59 994.701 1303.54 994.701C1296.35 994.701 1292.12 999.636 1292.12 1006.92C1292.12 1014.21 1296.26 1019.61 1303.64 1019.61C1309.51 1019.61 1312.94 1016.51 1313.69 1012.47H1309.65C1308.95 1014.72 1306.97 1016.13 1303.64 1016.13C1298.75 1016.13 1296.21 1012.75 1296.07 1007.11H1314.12V1005.75ZM1303.45 998.179C1307.44 998.179 1309.75 1000.76 1309.98 1003.77H1296.3C1296.82 1000.76 1299.17 998.179 1303.45 998.179ZM1067.61 1051.7C1060.18 1051.7 1055.95 1057.15 1055.95 1064.16C1055.95 1071.16 1060.18 1076.61 1067.61 1076.61C1074.99 1076.61 1079.26 1071.16 1079.26 1064.16C1079.26 1057.15 1074.99 1051.7 1067.61 1051.7ZM1067.61 1073.13C1062.34 1073.13 1059.95 1068.81 1059.95 1064.16C1059.95 1059.5 1062.34 1055.18 1067.61 1055.18C1072.82 1055.18 1075.27 1059.5 1075.27 1064.16C1075.27 1068.81 1072.82 1073.13 1067.61 1073.13ZM1097.44 1055.79V1052.31H1091V1049.73C1091 1047.28 1092.03 1045.31 1095.18 1045.31H1097.44V1041.83H1095.13C1090.01 1041.83 1087 1044.18 1087 1049.59V1052.31H1082.91V1055.79H1087V1076H1091V1055.79H1097.44ZM1140.75 1051.7C1137.78 1051.7 1135.53 1052.73 1134.07 1054.85H1133.04C1131.77 1052.73 1129.65 1051.7 1126.79 1051.7C1123.78 1051.7 1121.95 1052.78 1120.77 1054.61H1119.74V1052.31H1115.88V1076H1119.88V1062.89C1119.88 1058.61 1121.76 1055.27 1125.71 1055.27C1128.67 1055.27 1130.22 1057.29 1130.22 1061.19V1076H1134.21V1062.13C1134.21 1058.14 1136.28 1055.27 1139.99 1055.27C1143.05 1055.27 1144.55 1057.2 1144.55 1061.1V1076H1148.55V1060.68C1148.55 1055.23 1146.2 1051.7 1140.75 1051.7ZM1176.4 1062.75C1176.26 1056.92 1172.87 1051.7 1165.82 1051.7C1158.63 1051.7 1154.4 1056.64 1154.4 1063.92C1154.4 1071.21 1158.54 1076.61 1165.92 1076.61C1171.79 1076.61 1175.22 1073.51 1175.98 1069.47H1171.93C1171.23 1071.72 1169.25 1073.13 1165.92 1073.13C1161.03 1073.13 1158.49 1069.75 1158.35 1064.11H1176.4V1062.75ZM1165.73 1055.18C1169.72 1055.18 1172.03 1057.76 1172.26 1060.77H1158.59C1159.1 1057.76 1161.45 1055.18 1165.73 1055.18ZM1196.15 1052.31H1194.37C1190.94 1052.31 1188.68 1053.67 1187.51 1055.13H1186.47V1052.31H1182.62V1076H1186.61V1064.16C1186.61 1058.94 1189.48 1056.07 1194.18 1056.07H1196.15V1052.31ZM1217.42 1068.86C1216.81 1071.49 1214.83 1073.13 1211.45 1073.13C1206.14 1073.13 1203.93 1068.81 1203.93 1064.06C1203.93 1059.36 1206.09 1055.18 1211.45 1055.18C1214.69 1055.18 1216.53 1056.78 1217.28 1059.17H1221.27C1220.47 1054.8 1217.09 1051.7 1211.45 1051.7C1204.07 1051.7 1199.93 1057.01 1199.93 1064.16C1199.93 1071.16 1204.07 1076.61 1211.45 1076.61C1216.95 1076.61 1220.52 1073.51 1221.41 1068.86H1217.42ZM1248.43 1076V1060.96C1248.43 1055.27 1245.23 1051.7 1239.45 1051.7C1236.25 1051.7 1233.67 1053.02 1232.4 1054.85H1231.36V1041.83H1227.37V1076H1231.36V1063.17C1231.36 1058.99 1234.18 1055.27 1238.41 1055.27C1242.41 1055.27 1244.43 1057.53 1244.43 1061.81V1076H1248.43ZM1270.82 1076H1274.58V1059.88C1274.58 1054.57 1270.77 1051.7 1264.81 1051.7C1259.49 1051.7 1255.73 1054.24 1255.41 1058.61H1259.4C1259.59 1056.54 1261.37 1055.18 1264.9 1055.18C1269.04 1055.18 1270.68 1057.25 1270.68 1060.11V1061.05H1262.97C1256.39 1061.05 1253.9 1065.1 1253.9 1068.9C1253.9 1072.94 1256.96 1076.61 1262.41 1076.61C1265.79 1076.61 1268.33 1075.34 1269.79 1073.51H1270.82V1076ZM1263.4 1073.13C1259.87 1073.13 1257.9 1071.44 1257.9 1068.76C1257.9 1065.94 1259.68 1064.25 1263.58 1064.25H1270.68V1066.41C1270.68 1070.17 1267.34 1073.13 1263.4 1073.13ZM1302.95 1076V1060.96C1302.95 1055.27 1299.76 1051.7 1293.93 1051.7C1290.73 1051.7 1288.1 1053.02 1286.78 1054.85H1285.75V1052.31H1281.9V1076H1285.89V1063.17C1285.89 1058.99 1288.71 1055.27 1292.94 1055.27C1296.94 1055.27 1298.96 1057.43 1298.96 1061.81V1076H1302.95ZM1315.76 1052.31V1045.17H1311.77V1052.31H1307.68V1055.79H1311.77V1069.37C1311.77 1074.4 1314.77 1076 1319.9 1076H1321.73V1072.43H1319.99C1316.8 1072.43 1315.76 1071.21 1315.76 1068.81V1055.79H1321.73V1052.31H1315.76Z" fill="#274867"/>
<path d="M1066.92 276.764C1069.37 275.448 1070.59 272.957 1070.59 269.949C1070.59 265.343 1066.97 261.442 1059.87 261.442H1045.25V295H1060.25C1067.91 295 1071.62 290.911 1071.62 285.553C1071.62 282.122 1069.74 279.114 1066.92 277.798V276.764ZM1049.48 265.202H1059.68C1063.07 265.202 1066.31 266.518 1066.31 270.325C1066.31 274.461 1063.49 275.683 1059.78 275.683H1049.48V265.202ZM1049.48 291.24V279.396H1060.01C1063.96 279.396 1067.34 280.9 1067.34 285.224C1067.34 289.877 1063.77 291.24 1059.97 291.24H1049.48ZM1092.87 295H1096.63V278.879C1096.63 273.568 1092.83 270.701 1086.86 270.701C1081.55 270.701 1077.79 273.239 1077.46 277.61H1081.45C1081.64 275.542 1083.43 274.179 1086.95 274.179C1091.09 274.179 1092.73 276.247 1092.73 279.114V280.054H1085.02C1078.44 280.054 1075.95 284.096 1075.95 287.903C1075.95 291.945 1079.01 295.611 1084.46 295.611C1087.84 295.611 1090.38 294.342 1091.84 292.509H1092.87V295ZM1085.45 292.133C1081.92 292.133 1079.95 290.441 1079.95 287.762C1079.95 284.942 1081.73 283.25 1085.64 283.25H1092.73V285.412C1092.73 289.172 1089.4 292.133 1085.45 292.133ZM1125 295V279.96C1125 274.273 1121.81 270.701 1115.98 270.701C1112.78 270.701 1110.15 272.017 1108.84 273.85H1107.8V271.312H1103.95V295H1107.94V282.169C1107.94 277.986 1110.76 274.273 1114.99 274.273C1118.99 274.273 1121.01 276.435 1121.01 280.806V295H1125ZM1153.84 295L1145.43 278.597L1152.24 271.312H1147.49L1136.31 283.203V260.831H1132.31V295H1136.31V288.138L1141.76 282.122H1142.79L1149.56 295H1153.84ZM1191.91 281.746C1191.77 275.918 1188.39 270.701 1181.34 270.701C1174.15 270.701 1169.92 275.636 1169.92 282.921C1169.92 290.206 1174.05 295.611 1181.43 295.611C1187.31 295.611 1190.74 292.509 1191.49 288.467H1187.45C1186.74 290.723 1184.77 292.133 1181.43 292.133C1176.54 292.133 1174.01 288.749 1173.86 283.109H1191.91V281.746ZM1181.24 274.179C1185.24 274.179 1187.54 276.764 1187.78 279.772H1174.1C1174.62 276.764 1176.97 274.179 1181.24 274.179ZM1223 270.701C1220.03 270.701 1217.78 271.735 1216.32 273.85H1215.29C1214.02 271.735 1211.9 270.701 1209.04 270.701C1206.03 270.701 1204.2 271.782 1203.02 273.615H1201.99V271.312H1198.13V295H1202.13V281.887C1202.13 277.61 1204.01 274.273 1207.96 274.273C1210.92 274.273 1212.47 276.294 1212.47 280.195V295H1216.46V281.135C1216.46 277.14 1218.53 274.273 1222.24 274.273C1225.3 274.273 1226.8 276.2 1226.8 280.101V295H1230.8V279.678C1230.8 274.226 1228.45 270.701 1223 270.701ZM1242.34 265.155V260.831H1238.11V265.155H1242.34ZM1242.2 271.312H1238.2V295H1242.2V271.312ZM1255.54 271.312V264.168H1251.55V271.312H1247.46V274.79H1251.55V288.373C1251.55 293.402 1254.56 295 1259.68 295H1261.51V291.428H1259.77C1256.58 291.428 1255.54 290.206 1255.54 287.809V274.79H1261.51V271.312H1255.54ZM1288.25 281.746C1288.11 275.918 1284.73 270.701 1277.68 270.701C1270.49 270.701 1266.26 275.636 1266.26 282.921C1266.26 290.206 1270.39 295.611 1277.77 295.611C1283.65 295.611 1287.08 292.509 1287.83 288.467H1283.79C1283.08 290.723 1281.11 292.133 1277.77 292.133C1272.88 292.133 1270.35 288.749 1270.21 283.109H1288.25V281.746ZM1277.58 274.179C1281.58 274.179 1283.88 276.764 1284.12 279.772H1270.44C1270.96 276.764 1273.31 274.179 1277.58 274.179ZM1315.53 295V279.96C1315.53 274.273 1312.33 270.701 1306.51 270.701C1303.31 270.701 1300.68 272.017 1299.36 273.85H1298.33V271.312H1294.47V295H1298.47V282.169C1298.47 277.986 1301.29 274.273 1305.52 274.273C1309.51 274.273 1311.53 276.435 1311.53 280.806V295H1315.53ZM1328.34 271.312V264.168H1324.34V271.312H1320.25V274.79H1324.34V288.373C1324.34 293.402 1327.35 295 1332.47 295H1334.31V291.428H1332.57C1329.37 291.428 1328.34 290.206 1328.34 287.809V274.79H1334.31V271.312H1328.34ZM1053.54 327.701C1046.11 327.701 1041.88 333.153 1041.88 340.156C1041.88 347.159 1046.11 352.611 1053.54 352.611C1060.92 352.611 1065.19 347.159 1065.19 340.156C1065.19 333.153 1060.92 327.701 1053.54 327.701ZM1053.54 349.133C1048.27 349.133 1045.88 344.809 1045.88 340.156C1045.88 335.503 1048.27 331.179 1053.54 331.179C1058.76 331.179 1061.2 335.503 1061.2 340.156C1061.2 344.809 1058.76 349.133 1053.54 349.133ZM1083.37 331.79V328.312H1076.93V325.727C1076.93 323.283 1077.96 321.309 1081.11 321.309H1083.37V317.831H1081.06C1075.94 317.831 1072.93 320.181 1072.93 325.586V328.312H1068.84V331.79H1072.93V352H1076.93V331.79H1083.37ZM1114.08 327.701C1110.32 327.701 1108.11 329.158 1106.84 330.85H1105.81V317.831H1101.81V352H1105.67V349.462H1106.7C1108.02 351.107 1110.32 352.611 1114.08 352.611C1120.61 352.611 1124.47 347.159 1124.47 340.156C1124.47 333.012 1120.61 327.701 1114.08 327.701ZM1113.19 349.133C1107.92 349.133 1105.76 344.809 1105.76 340.156C1105.76 335.503 1107.92 331.179 1113.19 331.179C1117.94 331.179 1120.47 334.892 1120.47 340.156C1120.47 345.42 1117.94 349.133 1113.19 349.133ZM1130.35 328.312V343.352C1130.35 349.039 1133.55 352.611 1139.38 352.611C1142.57 352.611 1145.21 351.295 1146.52 349.462H1147.56V352H1151.41V328.312H1147.42V341.143C1147.42 345.42 1144.55 349.039 1140.37 349.039C1136.37 349.039 1134.35 346.877 1134.35 342.506V328.312H1130.35ZM1165.49 361.4L1179.68 328.312H1175.5L1168.92 343.916H1167.74L1160.51 328.312H1156.23L1166.33 349.791L1161.45 361.4H1165.49ZM1204.47 338.746C1204.32 332.918 1200.94 327.701 1193.89 327.701C1186.7 327.701 1182.47 332.636 1182.47 339.921C1182.47 347.206 1186.61 352.611 1193.98 352.611C1199.86 352.611 1203.29 349.509 1204.04 345.467H1200C1199.3 347.723 1197.32 349.133 1193.98 349.133C1189.1 349.133 1186.56 345.749 1186.42 340.109H1204.47V338.746ZM1193.8 331.179C1197.79 331.179 1200.09 333.764 1200.33 336.772H1186.65C1187.17 333.764 1189.52 331.179 1193.8 331.179ZM1224.22 328.312H1222.44C1219 328.312 1216.75 329.675 1215.57 331.132H1214.54V328.312H1210.69V352H1214.68V340.156C1214.68 334.939 1217.55 332.072 1222.25 332.072H1224.22V328.312ZM1258.57 344.856C1257.96 347.488 1255.98 349.133 1252.6 349.133C1247.29 349.133 1245.08 344.809 1245.08 340.062C1245.08 335.362 1247.24 331.179 1252.6 331.179C1255.84 331.179 1257.67 332.777 1258.43 335.174H1262.42C1261.62 330.803 1258.24 327.701 1252.6 327.701C1245.22 327.701 1241.08 333.012 1241.08 340.156C1241.08 347.159 1245.22 352.611 1252.6 352.611C1258.1 352.611 1261.67 349.509 1262.56 344.856H1258.57ZM1283.6 352H1287.36V335.879C1287.36 330.568 1283.56 327.701 1277.59 327.701C1272.28 327.701 1268.52 330.239 1268.19 334.61H1272.18C1272.37 332.542 1274.16 331.179 1277.68 331.179C1281.82 331.179 1283.46 333.247 1283.46 336.114V337.054H1275.76C1269.18 337.054 1266.68 341.096 1266.68 344.903C1266.68 348.945 1269.74 352.611 1275.19 352.611C1278.58 352.611 1281.11 351.342 1282.57 349.509H1283.6V352ZM1276.18 349.133C1272.65 349.133 1270.68 347.441 1270.68 344.762C1270.68 341.942 1272.47 340.25 1276.37 340.25H1283.46V342.412C1283.46 346.172 1280.13 349.133 1276.18 349.133ZM1308.22 328.312H1306.43C1303 328.312 1300.74 329.675 1299.57 331.132H1298.53V328.312H1294.68V352H1298.67V340.156C1298.67 334.939 1301.54 332.072 1306.24 332.072H1308.22V328.312ZM1330.65 317.831V330.85H1329.62C1328.3 329.158 1326.14 327.701 1322.38 327.701C1315.85 327.701 1312 333.012 1312 340.156C1312 347.159 1315.85 352.611 1322.38 352.611C1326.14 352.611 1328.45 351.107 1329.76 349.462H1330.8V352H1334.65V317.831H1330.65ZM1323.28 349.133C1318.53 349.133 1315.99 345.42 1315.99 340.156C1315.99 334.892 1318.53 331.179 1323.28 331.179C1328.54 331.179 1330.7 335.503 1330.7 340.156C1330.7 344.809 1328.54 349.133 1323.28 349.133Z" fill="#274867"/>
<path d="M948.892 623.442V657H953.122V623.442H948.892ZM982.6 657V641.96C982.6 636.273 979.404 632.701 973.576 632.701C970.38 632.701 967.748 634.017 966.432 635.85H965.398V633.312H961.544V657H965.539V644.169C965.539 639.986 968.359 636.273 972.589 636.273C976.584 636.273 978.605 638.435 978.605 642.806V657H982.6ZM995.408 633.312V626.168H991.413V633.312H987.324V636.79H991.413V650.373C991.413 655.402 994.421 657 999.544 657H1001.38V653.428H999.638C996.442 653.428 995.408 652.206 995.408 649.809V636.79H1001.38V633.312H995.408ZM1028.12 643.746C1027.98 637.918 1024.59 632.701 1017.54 632.701C1010.35 632.701 1006.12 637.636 1006.12 644.921C1006.12 652.206 1010.26 657.611 1017.64 657.611C1023.51 657.611 1026.94 654.509 1027.7 650.467H1023.65C1022.95 652.723 1020.98 654.133 1017.64 654.133C1012.75 654.133 1010.21 650.749 1010.07 645.109H1028.12V643.746ZM1017.45 636.179C1021.45 636.179 1023.75 638.764 1023.98 641.772H1010.31C1010.82 638.764 1013.17 636.179 1017.45 636.179ZM1047.87 633.312H1046.09C1042.66 633.312 1040.4 634.675 1039.23 636.132H1038.19V633.312H1034.34V657H1038.33V645.156C1038.33 639.939 1041.2 637.072 1045.9 637.072H1047.87V633.312ZM1074.17 657V641.96C1074.17 636.273 1070.97 632.701 1065.14 632.701C1061.95 632.701 1059.32 634.017 1058 635.85H1056.97V633.312H1053.11V657H1057.11V644.169C1057.11 639.986 1059.93 636.273 1064.16 636.273C1068.15 636.273 1070.17 638.435 1070.17 642.806V657H1074.17ZM1096.56 657H1100.32V640.879C1100.32 635.568 1096.52 632.701 1090.55 632.701C1085.24 632.701 1081.48 635.239 1081.15 639.61H1085.14C1085.33 637.542 1087.12 636.179 1090.64 636.179C1094.78 636.179 1096.42 638.247 1096.42 641.114V642.054H1088.71C1082.13 642.054 1079.64 646.096 1079.64 649.903C1079.64 653.945 1082.7 657.611 1088.15 657.611C1091.53 657.611 1094.07 656.342 1095.53 654.509H1096.56V657ZM1089.14 654.133C1085.61 654.133 1083.64 652.441 1083.64 649.762C1083.64 646.942 1085.42 645.25 1089.33 645.25H1096.42V647.412C1096.42 651.172 1093.09 654.133 1089.14 654.133ZM1113.14 633.312V626.168H1109.14V633.312H1105.05V636.79H1109.14V650.373C1109.14 655.402 1112.15 657 1117.27 657H1119.11V653.428H1117.37C1114.17 653.428 1113.14 652.206 1113.14 649.809V636.79H1119.11V633.312H1113.14ZM1129.91 627.155V622.831H1125.68V627.155H1129.91ZM1129.77 633.312H1125.77V657H1129.77V633.312ZM1147.81 632.701C1140.38 632.701 1136.15 638.153 1136.15 645.156C1136.15 652.159 1140.38 657.611 1147.81 657.611C1155.19 657.611 1159.47 652.159 1159.47 645.156C1159.47 638.153 1155.19 632.701 1147.81 632.701ZM1147.81 654.133C1142.55 654.133 1140.15 649.809 1140.15 645.156C1140.15 640.503 1142.55 636.179 1147.81 636.179C1153.03 636.179 1155.47 640.503 1155.47 645.156C1155.47 649.809 1153.03 654.133 1147.81 654.133ZM1186.76 657V641.96C1186.76 636.273 1183.56 632.701 1177.73 632.701C1174.54 632.701 1171.9 634.017 1170.59 635.85H1169.55V633.312H1165.7V657H1169.7V644.169C1169.7 639.986 1172.52 636.273 1176.75 636.273C1180.74 636.273 1182.76 638.435 1182.76 642.806V657H1186.76ZM1209.15 657H1212.91V640.879C1212.91 635.568 1209.11 632.701 1203.14 632.701C1197.83 632.701 1194.07 635.239 1193.74 639.61H1197.73C1197.92 637.542 1199.71 636.179 1203.23 636.179C1207.37 636.179 1209.01 638.247 1209.01 641.114V642.054H1201.3C1194.72 642.054 1192.23 646.096 1192.23 649.903C1192.23 653.945 1195.29 657.611 1200.74 657.611C1204.12 657.611 1206.66 656.342 1208.12 654.509H1209.15V657ZM1201.73 654.133C1198.2 654.133 1196.23 652.441 1196.23 649.762C1196.23 646.942 1198.01 645.25 1201.91 645.25H1209.01V647.412C1209.01 651.172 1205.67 654.133 1201.73 654.133ZM1220.23 622.831V657H1224.22V622.831H1220.23ZM1256.39 636.179C1261.13 636.179 1263.67 639.892 1263.67 645.156C1263.67 650.42 1261.13 654.133 1256.39 654.133C1251.12 654.133 1248.96 649.809 1248.96 645.156C1248.96 640.503 1251.12 636.179 1256.39 636.179ZM1245.01 633.312V666.4H1249.01V654.462H1250.04C1251.31 656.154 1253.52 657.611 1257.28 657.611C1263.81 657.611 1267.67 652.3 1267.67 645.156C1267.67 638.153 1263.81 632.701 1257.28 632.701C1253.52 632.701 1251.22 634.205 1249.9 635.85H1248.87V633.312H1245.01ZM1289.02 657H1292.78V640.879C1292.78 635.568 1288.97 632.701 1283 632.701C1277.69 632.701 1273.93 635.239 1273.6 639.61H1277.59C1277.78 637.542 1279.57 636.179 1283.09 636.179C1287.23 636.179 1288.87 638.247 1288.87 641.114V642.054H1281.17C1274.59 642.054 1272.1 646.096 1272.1 649.903C1272.1 653.945 1275.15 657.611 1280.6 657.611C1283.99 657.611 1286.52 656.342 1287.98 654.509H1289.02V657ZM1281.59 654.133C1278.06 654.133 1276.09 652.441 1276.09 649.762C1276.09 646.942 1277.88 645.25 1281.78 645.25H1288.87V647.412C1288.87 651.172 1285.54 654.133 1281.59 654.133ZM1306.48 666.4L1320.68 633.312H1316.49L1309.91 648.916H1308.74L1301.5 633.312H1297.22L1307.33 654.791L1302.44 666.4H1306.48ZM1350.24 632.701C1347.28 632.701 1345.03 633.735 1343.57 635.85H1342.54C1341.27 633.735 1339.15 632.701 1336.28 632.701C1333.28 632.701 1331.44 633.782 1330.27 635.615H1329.23V633.312H1325.38V657H1329.38V643.887C1329.38 639.61 1331.26 636.273 1335.2 636.273C1338.16 636.273 1339.72 638.294 1339.72 642.195V657H1343.71V643.135C1343.71 639.14 1345.78 636.273 1349.49 636.273C1352.55 636.273 1354.05 638.2 1354.05 642.101V657H1358.05V641.678C1358.05 636.226 1355.7 632.701 1350.24 632.701ZM1385.9 643.746C1385.76 637.918 1382.37 632.701 1375.32 632.701C1368.13 632.701 1363.9 637.636 1363.9 644.921C1363.9 652.206 1368.04 657.611 1375.42 657.611C1381.29 657.611 1384.72 654.509 1385.47 650.467H1381.43C1380.73 652.723 1378.75 654.133 1375.42 654.133C1370.53 654.133 1367.99 650.749 1367.85 645.109H1385.9V643.746ZM1375.23 636.179C1379.22 636.179 1381.53 638.764 1381.76 641.772H1368.08C1368.6 638.764 1370.95 636.179 1375.23 636.179ZM1413.17 657V641.96C1413.17 636.273 1409.98 632.701 1404.15 632.701C1400.95 632.701 1398.32 634.017 1397.01 635.85H1395.97V633.312H1392.12V657H1396.11V644.169C1396.11 639.986 1398.93 636.273 1403.16 636.273C1407.16 636.273 1409.18 638.435 1409.18 642.806V657H1413.17ZM1425.98 633.312V626.168H1421.99V633.312H1417.9V636.79H1421.99V650.373C1421.99 655.402 1424.99 657 1430.12 657H1431.95V653.428H1430.21C1427.02 653.428 1425.98 652.206 1425.98 649.809V636.79H1431.95V633.312H1425.98ZM985.382 699.242C982.985 698.866 981.81 698.161 981.81 696.328C981.81 694.307 983.878 693.179 986.933 693.179C989.894 693.179 992.15 694.213 992.479 696.469H996.474C995.957 692.333 992.714 689.701 987.121 689.701C980.729 689.701 977.768 692.756 977.768 696.704C977.768 700.276 980.071 702.062 983.455 702.673L988.766 703.566C991.774 704.083 993.09 705.211 993.09 707.279C993.09 709.864 990.74 711.133 987.168 711.133C983.596 711.133 981.246 709.817 980.87 707.138H976.828C977.345 711.65 980.635 714.611 987.356 714.611C993.748 714.611 997.085 711.086 997.085 707.185C997.085 702.861 994.453 700.746 990.317 700.041L987.638 699.618L985.382 699.242ZM1009.34 723.4L1023.53 690.312H1019.35L1012.77 705.916H1011.59L1004.35 690.312H1000.08L1010.18 711.791L1005.29 723.4H1009.34ZM1034.81 699.242C1032.42 698.866 1031.24 698.161 1031.24 696.328C1031.24 694.307 1033.31 693.179 1036.37 693.179C1039.33 693.179 1041.58 694.213 1041.91 696.469H1045.91C1045.39 692.333 1042.15 689.701 1036.55 689.701C1030.16 689.701 1027.2 692.756 1027.2 696.704C1027.2 700.276 1029.5 702.062 1032.89 702.673L1038.2 703.566C1041.21 704.083 1042.52 705.211 1042.52 707.279C1042.52 709.864 1040.17 711.133 1036.6 711.133C1033.03 711.133 1030.68 709.817 1030.3 707.138H1026.26C1026.78 711.65 1030.07 714.611 1036.79 714.611C1043.18 714.611 1046.52 711.086 1046.52 707.185C1046.52 702.861 1043.89 700.746 1039.75 700.041L1037.07 699.618L1034.81 699.242ZM1057.88 690.312V683.168H1053.88V690.312H1049.79V693.79H1053.88V707.373C1053.88 712.402 1056.89 714 1062.01 714H1063.84V710.428H1062.11C1058.91 710.428 1057.88 709.206 1057.88 706.809V693.79H1063.84V690.312H1057.88ZM1090.59 700.746C1090.45 694.918 1087.06 689.701 1080.01 689.701C1072.82 689.701 1068.59 694.636 1068.59 701.921C1068.59 709.206 1072.73 714.611 1080.11 714.611C1085.98 714.611 1089.41 711.509 1090.16 707.467H1086.12C1085.42 709.723 1083.44 711.133 1080.11 711.133C1075.22 711.133 1072.68 707.749 1072.54 702.109H1090.59V700.746ZM1079.92 693.179C1083.91 693.179 1086.22 695.764 1086.45 698.772H1072.77C1073.29 695.764 1075.64 693.179 1079.92 693.179ZM1121.67 689.701C1118.71 689.701 1116.45 690.735 1115 692.85H1113.96C1112.69 690.735 1110.58 689.701 1107.71 689.701C1104.7 689.701 1102.87 690.782 1101.69 692.615H1100.66V690.312H1096.81V714H1100.8V700.887C1100.8 696.61 1102.68 693.273 1106.63 693.273C1109.59 693.273 1111.14 695.294 1111.14 699.195V714H1115.14V700.135C1115.14 696.14 1117.2 693.273 1120.92 693.273C1123.97 693.273 1125.48 695.2 1125.48 699.101V714H1129.47V698.678C1129.47 693.226 1127.12 689.701 1121.67 689.701ZM1152.03 699.336C1152.03 690.03 1155.51 683.45 1159.27 678.327H1155.41C1151.56 683.215 1148.27 690.077 1148.27 699.336C1148.27 708.689 1151.65 715.786 1155.74 720.627H1159.59C1155.74 715.504 1152.03 708.783 1152.03 699.336ZM1171.48 714H1179.57L1190.28 680.442H1185.91L1176.75 709.676H1174.4L1165.23 680.442H1160.77L1171.48 714ZM1199.31 684.155V679.831H1195.08V684.155H1199.31ZM1199.16 690.312H1195.17V714H1199.16V690.312ZM1213.59 699.242C1211.19 698.866 1210.02 698.161 1210.02 696.328C1210.02 694.307 1212.08 693.179 1215.14 693.179C1218.1 693.179 1220.36 694.213 1220.69 696.469H1224.68C1224.16 692.333 1220.92 689.701 1215.33 689.701C1208.94 689.701 1205.97 692.756 1205.97 696.704C1205.97 700.276 1208.28 702.062 1211.66 702.673L1216.97 703.566C1219.98 704.083 1221.3 705.211 1221.3 707.279C1221.3 709.864 1218.95 711.133 1215.37 711.133C1211.8 711.133 1209.45 709.817 1209.08 707.138H1205.03C1205.55 711.65 1208.84 714.611 1215.56 714.611C1221.95 714.611 1225.29 711.086 1225.29 707.185C1225.29 702.861 1222.66 700.746 1218.52 700.041L1215.84 699.618L1213.59 699.242ZM1246.24 714H1250V697.879C1250 692.568 1246.19 689.701 1240.22 689.701C1234.91 689.701 1231.15 692.239 1230.82 696.61H1234.82C1235.01 694.542 1236.79 693.179 1240.32 693.179C1244.45 693.179 1246.1 695.247 1246.1 698.114V699.054H1238.39C1231.81 699.054 1229.32 703.096 1229.32 706.903C1229.32 710.945 1232.37 714.611 1237.83 714.611C1241.21 714.611 1243.75 713.342 1245.2 711.509H1246.24V714ZM1238.81 711.133C1235.29 711.133 1233.31 709.441 1233.31 706.762C1233.31 703.942 1235.1 702.25 1239 702.25H1246.1V704.412C1246.1 708.172 1242.76 711.133 1238.81 711.133ZM1259.43 714V714.893L1256.8 719.405H1259.33L1261.97 714.893V708.548H1257.08V714H1259.43ZM1282.93 714H1287.07V685.236H1288.1L1296.71 701.169H1301.12L1309.72 685.236H1310.76V714H1314.89V680.442H1307.8L1299.48 696.187H1298.44L1289.98 680.442H1282.93V714ZM1346.12 704.459C1345.04 708.36 1341.98 710.757 1337.28 710.757C1329.48 710.757 1326.05 704.365 1326.05 697.221C1326.05 690.124 1329.53 683.685 1337.33 683.685C1341.98 683.685 1344.47 685.659 1345.74 689.231H1350.21C1348.84 683.45 1344.14 679.831 1337.33 679.831C1327.36 679.831 1321.77 687.257 1321.77 697.221C1321.77 707.185 1327.27 714.611 1337.28 714.611C1344.66 714.611 1349.22 710.428 1350.58 704.459H1346.12ZM1374.51 714V708.548H1369.62V714H1374.51ZM1386.63 714V708.548H1381.74V714H1386.63ZM1398.04 699.336C1398.04 708.783 1394.33 715.504 1390.47 720.627H1394.33C1398.41 715.786 1401.8 708.689 1401.8 699.336C1401.8 690.077 1398.51 683.215 1394.65 678.327H1390.8C1394.56 683.45 1398.04 690.03 1398.04 699.336Z" fill="#274867"/>
<rect x="134" y="465" width="32" height="44" fill="white"/>
<rect x="1039" y="465" width="32" height="44" fill="white"/>
<rect x="1039" y="827" width="32" height="44" fill="white"/>
<rect x="730" y="1279" width="32" height="44" fill="white"/>
<rect x="730" y="15" width="32" height="44" fill="white"/>
<rect x="134" y="829" width="32" height="44" fill="white"/>
<path d="M139.931 504H159.06V500.334H151.869V471.1H146.746L139.884 475.753V480.077L146.793 475.424H147.733V500.334H139.931V504Z" fill="#274867"/>
<path d="M1064.39 475.706V471.1H1043.43V474.672H1060.11V475.706L1045.83 504H1050.15L1064.39 475.706Z" fill="#274867"/>
<path d="M1061.24 848.14C1062.93 847.388 1065.37 844.897 1065.37 841.231C1065.37 836.014 1060.86 832.442 1054.47 832.442C1048.08 832.442 1043.56 836.014 1043.56 841.231C1043.56 844.991 1045.96 847.388 1047.7 848.14V849.174C1045.49 849.926 1042.58 852.699 1042.58 857.023C1042.58 862.475 1047.23 866.611 1054.47 866.611C1061.71 866.611 1066.36 862.475 1066.36 857.023C1066.36 852.652 1063.4 849.926 1061.24 849.174V848.14ZM1054.47 836.014C1058.23 836.014 1061.33 837.894 1061.33 841.419C1061.33 844.944 1058.23 846.871 1054.47 846.871C1050.71 846.871 1047.61 844.944 1047.61 841.419C1047.61 837.894 1050.71 836.014 1054.47 836.014ZM1054.47 862.945C1049.63 862.945 1046.67 860.454 1046.67 856.647C1046.67 852.746 1049.63 850.443 1054.47 850.443C1059.31 850.443 1062.27 852.746 1062.27 856.647C1062.27 860.454 1059.31 862.945 1054.47 862.945Z" fill="#274867"/>
<path d="M735.834 1285.1V1288.67H750.216V1289.71L742.179 1296.66V1301.03C742.931 1300.84 743.871 1300.75 745.046 1300.75C749.887 1300.75 752.472 1303.43 752.472 1307.75C752.472 1312.27 749.511 1314.94 744.999 1314.94C741.051 1314.94 737.996 1312.55 737.62 1308.79H733.484C733.86 1314.38 738.325 1318.61 744.999 1318.61C751.72 1318.61 756.608 1314.57 756.608 1307.75C756.608 1301.41 752.472 1297.88 746.832 1297.74V1296.76L755.057 1289.71V1285.1H735.834Z" fill="#274867"/>
<path d="M746.392 32.568C742.444 32.568 739.812 34.401 738.684 35.764H737.65C737.885 28.573 740.893 24.108 746.157 24.108C749.353 24.108 751.139 25.518 751.938 28.291H756.027C755.275 23.779 751.75 20.442 746.157 20.442C737.556 20.442 733.655 28.432 733.655 38.443C733.655 50.287 738.731 54.611 745.734 54.611C752.737 54.611 756.92 49.535 756.92 43.284C756.92 37.033 752.408 32.568 746.392 32.568ZM745.687 50.945C741.692 50.945 738.449 48.219 738.449 43.425C738.449 38.725 741.645 36.187 745.593 36.187C749.588 36.187 752.784 38.584 752.784 43.472C752.784 48.36 749.682 50.945 745.687 50.945Z" fill="#274867"/>
<path d="M141.949 844.171C142.372 840.035 144.957 838.108 148.67 838.108C152.665 838.108 155.297 840.317 155.297 844.453C155.297 848.354 152.43 851.033 150.174 853.054C148.435 854.652 145.333 857.284 142.701 859.399L137.86 863.347V868H160.467V864.334H143.876V863.3L152.148 856.344C156.049 853.101 159.433 848.918 159.433 844.453C159.433 837.873 154.921 834.442 148.764 834.442C142.936 834.442 138.189 837.591 137.813 844.171H141.949Z" fill="#274867"/>
</g>
<defs>
<clipPath id="clip0_1127_93">
<rect width="1474" height="1329" fill="white"/>
</clipPath>
</defs>
</svg>
